{
  "accessors": [
    {
      "bufferView": 2,
      "componentType": 5126,
      "count": 2209,
      "max": [
        83.17183685302734,
        272.909912109375,
        78.32848358154297
      ],
      "min": [
        -82.56451416015625,
        1.4999999621068127e-05,
        -79.12279510498047
      ],
      "type": "VEC3"
    },
    {
      "bufferView": 2,
      "byteOffset": 26508,
      "componentType": 5126,
      "count": 2209,
      "max": [
        0.9997979998588562,
        0.9995567798614502,
        0.9999105930328369
      ],
      "min": [
        -0.9999733567237854,
        -0.9997105002403259,
        -0.9999944567680359
      ],
      "type": "VEC3"
    },
    {
      "bufferView": 3,
      "componentType": 5126,
      "count": 2209,
      "max": [
        0.9985873103141785,
        0.9999496936798096,
        0.9999129176139832,
        1.0
      ],
      "min": [
        -0.9998880624771118,
        -0.9997361302375793,
        -0.999978244304657,
        1.0
      ],
      "type": "VEC4"
    },
    {
      "bufferView": 1,
      "componentType": 5126,
      "count": 2209,
      "max": [
        0.998924970626831,
        0.998924970626831
      ],
      "min": [
        0.001075000036507845,
        0.09557200223207474
      ],
      "type": "VEC2"
    },
    {
      "bufferView": 0,
      "componentType": 5125,
      "count": 7767,
      "type": "SCALAR"
    }
  ],
  "asset": {
    "extras": {
      "author": "AK STUDIO (https://sketchfab.com/inven2000)",
      "license": "SKETCHFAB Standard (https://sketchfab.com/licenses)",
      "source": "https://sketchfab.com/3d-models/the-bust-of-pharaoh-tutankhamun-979585b484bc40d8a57718ea8afb77bd",
      "title": "The bust of Pharaoh Tutankhamun"
    },
    "generator": "Sketchfab-16.68.0",
    "version": "2.0"
  },
  "bufferViews": [
    {
      "buffer": 0,
      "byteLength": 31068,
      "name": "floatBufferViews",
      "target": 34963
    },
    {
      "buffer": 0,
      "byteLength": 17672,
      "byteOffset": 31068,
      "byteStride": 8,
      "name": "floatBufferViews",
      "target": 34962
    },
    {
      "buffer": 0,
      "byteLength": 53016,
      "byteOffset": 48740,
      "byteStride": 12,
      "name": "floatBufferViews",
      "target": 34962
    },
    {
      "buffer": 0,
      "byteLength": 35344,
      "byteOffset": 101756,
      "byteStride": 16,
      "name": "floatBufferViews",
      "target": 34962
    }
  ],
  "buffers": [
    {
      "byteLength": 137100,
      "uri": "scene.bin"
    }
  ],
  "images": [
    {
      "uri": "textures/DefaultMaterial_baseColor.jpeg"
    },
    {
      "uri": "textures/DefaultMaterial_metallicRoughness.png"
    },
    {
      "uri": "textures/DefaultMaterial_normal.png"
    }
  ],
  "materials": [
    {
      "doubleSided": true,
      "name": "DefaultMaterial",
      "normalTexture": {
        "index": 2
      },
      "occlusionTexture": {
        "index": 1
      },
      "pbrMetallicRoughness": {
        "baseColorTexture": {
          "index": 0
        },
        "metallicRoughnessTexture": {
          "index": 1
        }
      }
    }
  ],
  "meshes": [
    {
      "name": "defaultMaterial",
      "primitives": [
        {
          "attributes": {
            "NORMAL": 1,
            "POSITION": 0,
            "TANGENT": 2,
            "TEXCOORD_0": 3
          },
          "indices": 4,
          "material": 0,
          "mode": 4
        }
      ]
    }
  ],
  "nodes": [
    {
      "children": [
        1
      ],
      "matrix": [
        0.006316062994301319,
        0.0,
        0.0,
        0.0,
        0.0,
        1.4024477122512467e-18,
        -0.006316062994301319,
        0.0,
        0.0,
        0.006316062994301319,
        1.4024477122512467e-18,
        0.0,
        0.0,
        0.0,
        0.0,
        1.0
      ],
      "name": "Sketchfab_model"
    },
    {
      "children": [
        2
      ],
      "matrix": [
        1.0,
        0.0,
        0.0,
        0.0,
        0.0,
        -4.371139006309477e-08,
        0.999999999999999,
        0.0,
        0.0,
        -0.999999999999999,
        -4.371139006309477e-08,
        0.0,
        0.0,
        0.0,
        0.0,
        1.0
      ],
      "name": "Collada visual scene group"
    },
    {
      "children": [
        3
      ],
      "name": "Estatua"
    },
    {
      "mesh": 0,
      "name": "defaultMaterial"
    }
  ],
  "samplers": [
    {
      "magFilter": 9729,
      "minFilter": 9987,
      "wrapS": 10497,
      "wrapT": 10497
    }
  ],
  "scene": 0,
  "scenes": [
    {
      "name": "Sketchfab_Scene",
      "nodes": [
        0
      ]
    }
  ],
  "textures": [
    {
      "sampler": 0,
      "source": 0
    },
    {
      "sampler": 0,
      "source": 1
    },
    {
      "sampler": 0,
      "source": 2
    }
  ]
}
