{
  "accessors": [
    {
      "bufferView": 2,
      "componentType": 5126,
      "count": 65532,
      "max": [
        4.519815921783447,
        4.418673038482666,
        6.349796772003174
      ],
      "min": [
        -4.185545921325684,
        -6.887351989746094,
        0.050276998430490494
      ],
      "type": "VEC3"
    },
    {
      "bufferView": 2,
      "byteOffset": 786384,
      "componentType": 5126,
      "count": 65532,
      "max": [
        0.9999880194664001,
        0.9999926090240479,
        0.9999998211860657
      ],
      "min": [
        -0.9999571442604065,
        -1.0,
        -0.991461455821991
      ],
      "type": "VEC3"
    },
    {
      "bufferView": 1,
      "componentType": 5126,
      "count": 65532,
      "max": [
        0.9950039982795715,
        0.9845690131187439
      ],
      "min": [
        0.0282600000500679,
        0.027305999770760536
      ],
      "type": "VEC2"
    },
    {
      "bufferView": 0,
      "componentType": 5125,
      "count": 339000,
      "type": "SCALAR"
    },
    {
      "bufferView": 2,
      "byteOffset": 1572768,
      "componentType": 5126,
      "count": 2608,
      "max": [
        4.519815921783447,
        2.7701330184936523,
        6.196897029876709
      ],
      "min": [
        -4.135976791381836,
        -4.509491920471191,
        0.05027800053358078
      ],
      "type": "VEC3"
    },
    {
      "bufferView": 2,
      "byteOffset": 1604064,
      "componentType": 5126,
      "count": 2608,
      "max": [
        0.999962329864502,
        0.9713307023048401,
        0.9999912977218628
      ],
      "min": [
        -0.9999696612358093,
        -0.9988906383514404,
        -0.9296475648880005
      ],
      "type": "VEC3"
    },
    {
      "bufferView": 1,
      "byteOffset": 524256,
      "componentType": 5126,
      "count": 2608,
      "max": [
        0.9791169762611389,
        0.9595779776573181
      ],
      "min": [
        0.003955999854952097,
        0.07692299783229828
      ],
      "type": "VEC2"
    },
    {
      "bufferView": 0,
      "byteOffset": 1356000,
      "componentType": 5125,
      "count": 6285,
      "type": "SCALAR"
    },
    {
      "bufferView": 2,
      "byteOffset": 1635360,
      "componentType": 5126,
      "count": 1165,
      "max": [
        4.419717788696289,
        4.287721157073975,
        0.050280001014471054
      ],
      "min": [
        -4.098618030548096,
        -6.743960857391357,
        0.050276998430490494
      ],
      "type": "VEC3"
    },
    {
      "bufferView": 2,
      "byteOffset": 1649340,
      "componentType": 5126,
      "count": 1165,
      "max": [
        0.021879347041249275,
        0.02998979389667511,
        -0.9993107318878174
      ],
      "min": [
        -0.006282399874180555,
        -0.01117023080587387,
        -1.0
      ],
      "type": "VEC3"
    },
    {
      "bufferView": 1,
      "byteOffset": 545120,
      "componentType": 5126,
      "count": 1165,
      "max": [
        0.0,
        0.0
      ],
      "min": [
        0.0,
        0.0
      ],
      "type": "VEC2"
    },
    {
      "bufferView": 0,
      "byteOffset": 1381140,
      "componentType": 5125,
      "count": 3489,
      "type": "SCALAR"
    }
  ],
  "asset": {
    "extras": {
      "author": "Thomas Flynn (https://sketchfab.com/nebulousflynn)",
      "license": "CC-BY-4.0 (http://creativecommons.org/licenses/by/4.0/)",
      "source": "https://sketchfab.com/3d-models/giant-sculpture-of-a-scarab-beetle-update-16-c8a568f1c1a746d4b2939b2f9a46f3d9",
      "title": "Giant sculpture of a scarab beetle (update '16)"
    },
    "generator": "Sketchfab-12.65.0",
    "version": "2.0"
  },
  "bufferViews": [
    {
      "buffer": 0,
      "byteLength": 1395096,
      "name": "floatBufferViews",
      "target": 34963
    },
    {
      "buffer": 0,
      "byteLength": 554440,
      "byteOffset": 1395096,
      "byteStride": 8,
      "name": "floatBufferViews",
      "target": 34962
    },
    {
      "buffer": 0,
      "byteLength": 1663320,
      "byteOffset": 1949536,
      "byteStride": 12,
      "name": "floatBufferViews",
      "target": 34962
    }
  ],
  "buffers": [
    {
      "byteLength": 3612856,
      "uri": "scene.bin"
    }
  ],
  "images": [
    {
      "uri": "textures/material_baseColor.jpeg"
    },
    {
      "uri": "textures/material_metallicRoughness.png"
    }
  ],
  "materials": [
    {
      "doubleSided": true,
      "name": "material",
      "occlusionTexture": {
        "index": 1,
        "strength": 0.5
      },
      "pbrMetallicRoughness": {
        "baseColorFactor": [
          0.4,
          0.4,
          0.4,
          1.0
        ],
        "baseColorTexture": {
          "index": 0
        },
        "metallicFactor": 0.5,
        "metallicRoughnessTexture": {
          "index": 1
        }
      }
    },
    {
      "doubleSided": true,
      "name": "v2_NONE",
      "pbrMetallicRoughness": {
        "baseColorFactor": [
          0.0,
          0.0,
          0.0,
          1.0
        ],
        "baseColorTexture": {
          "index": 0
        },
        "metallicFactor": 0.0
      }
    }
  ],
  "meshes": [
    {
      "name": "Object_0",
      "primitives": [
        {
          "attributes": {
            "NORMAL": 1,
            "POSITION": 0,
            "TEXCOORD_0": 2
          },
          "indices": 3,
          "material": 0,
          "mode": 4
        }
      ]
    },
    {
      "name": "Object_1",
      "primitives": [
        {
          "attributes": {
            "NORMAL": 5,
            "POSITION": 4,
            "TEXCOORD_0": 6
          },
          "indices": 7,
          "material": 0,
          "mode": 4
        }
      ]
    },
    {
      "name": "Object_2",
      "primitives": [
        {
          "attributes": {
            "NORMAL": 9,
            "POSITION": 8,
            "TEXCOORD_0": 10
          },
          "indices": 11,
          "material": 1,
          "mode": 4
        }
      ]
    }
  ],
  "nodes": [
    {
      "children": [
        1
      ],
      "matrix": [
        1.0,
        0.0,
        0.0,
        0.0,
        0.0,
        2.220446049250313e-16,
        -1.0,
        0.0,
        0.0,
        1.0,
        2.220446049250313e-16,
        0.0,
        0.0,
        0.0,
        0.0,
        1.0
      ],
      "name": "Sketchfab_model"
    },
    {
      "children": [
        2,
        3,
        4
      ],
      "name": "v2.obj.cleaner.gles"
    },
    {
      "mesh": 0,
      "name": "Object_2"
    },
    {
      "mesh": 1,
      "name": "Object_3"
    },
    {
      "mesh": 2,
      "name": "Object_4"
    }
  ],
  "samplers": [
    {
      "magFilter": 9729,
      "minFilter": 9987,
      "wrapS": 10497,
      "wrapT": 10497
    }
  ],
  "scene": 0,
  "scenes": [
    {
      "name": "Sketchfab_Scene",
      "nodes": [
        0
      ]
    }
  ],
  "textures": [
    {
      "sampler": 0,
      "source": 0
    },
    {
      "sampler": 0,
      "source": 1
    }
  ]
}
